# xmcd CD database file
#
# Track frame offsets:
#	150
#	30531
#	72496
#	142378
#	176650
#	204751
#	217249
#
# Disc length: 3092 seconds
#
# Revision: 0
# Processed by: cddbd v1.5PL3 Copyright (c) Steve Scherf et al.
# Submitted via: CDex 1.50
#
DISCID=700c1207
DTITLE=Kenny Wayne Shepherd - Multiplicity [CD2]
DYEAR=2004
DGENRE=Blues
TTITLE0=I'm Leaving You
TTITLE1=While We Cry
TTITLE2=Voodoo Chile
TTITLE3=Deja Voodoo
TTITLE4=Tell Me What It's All About
TTITLE5=Let Me Up, I've Had Enough
TTITLE6=One Foot On The Path
EXTD=YEAR: 2004
EXTT0=
EXTT1=
EXTT2=
EXTT3=
EXTT4=
EXTT5=
EXTT6=
PLAYORDER=
